<?xml version="1.0" standalone="no"?>
<!DOCTYPE svg PUBLIC "-//W3C//DTD SVG 20010904//EN"
 "http://www.w3.org/TR/2001/REC-SVG-20010904/DTD/svg10.dtd">
<svg version="1.0" xmlns="http://www.w3.org/2000/svg"
 width="512.000000pt" height="512.000000pt" viewBox="0 0 512.000000 512.000000"
 preserveAspectRatio="xMidYMid meet">

<g transform="translate(0.000000,512.000000) scale(0.100000,-0.100000)"
fill="#D43900" stroke="none">
<path d="M2315 5020 c-130 -5 -158 -10 -210 -32 -34 -15 -107 -33 -170 -42
-79 -12 -120 -23 -145 -40 -19 -13 -60 -29 -90 -36 -84 -18 -88 -20 -118 -44
-15 -13 -54 -31 -86 -40 -32 -10 -75 -30 -95 -46 -20 -15 -52 -33 -72 -39 -20
-7 -45 -21 -55 -33 -11 -11 -43 -31 -72 -44 -29 -13 -55 -31 -59 -39 -3 -9
-23 -25 -44 -35 -21 -11 -44 -28 -51 -38 -7 -10 -29 -29 -48 -42 -50 -35 -200
-181 -287 -280 -41 -47 -87 -98 -103 -115 -15 -16 -31 -40 -34 -52 -4 -12 -19
-32 -33 -43 -14 -11 -36 -41 -48 -68 -12 -26 -32 -55 -43 -66 -12 -10 -26 -35
-33 -55 -6 -20 -24 -52 -39 -72 -16 -20 -36 -62 -45 -93 -9 -31 -27 -69 -41
-85 -15 -18 -30 -56 -39 -102 -9 -41 -27 -90 -41 -110 -19 -28 -29 -62 -40
-145 -9 -63 -26 -133 -41 -168 -23 -54 -27 -81 -33 -226 -7 -170 -4 -443 6
-565 3 -38 16 -94 29 -125 13 -30 28 -93 35 -140 12 -96 30 -170 39 -170 14 0
32 -44 46 -111 9 -44 25 -82 39 -100 14 -16 32 -54 41 -85 9 -31 29 -73 45
-93 15 -20 33 -52 39 -72 6 -20 22 -46 35 -59 14 -12 34 -43 45 -70 11 -26 32
-55 46 -64 14 -9 25 -24 25 -33 0 -8 15 -30 33 -47 18 -17 38 -39 43 -48 25
-46 203 -232 293 -308 30 -25 72 -61 95 -81 22 -20 55 -44 72 -52 17 -9 34
-23 37 -32 4 -8 30 -26 59 -39 29 -13 61 -33 72 -44 10 -12 35 -26 55 -33 20
-6 52 -24 72 -39 20 -16 62 -36 93 -45 31 -9 69 -27 84 -40 16 -13 59 -31 98
-40 38 -9 85 -27 104 -40 25 -17 59 -28 115 -35 108 -14 176 -30 202 -46 42
-26 158 -35 467 -35 325 1 392 6 466 39 25 11 95 28 155 36 82 12 120 23 147
41 21 14 69 32 108 40 43 9 85 26 110 44 22 16 55 32 72 35 18 3 53 24 78 46
24 22 57 45 72 51 15 6 28 15 28 20 0 5 22 33 49 63 29 32 54 72 61 94 5 22
18 46 27 53 31 27 45 81 50 208 7 171 -7 294 -38 327 -13 14 -33 48 -44 77
-20 49 -23 52 -64 58 -35 5 -47 2 -62 -15 -11 -11 -19 -23 -19 -27 0 -3 -14
-12 -30 -19 -17 -7 -39 -25 -50 -41 -12 -15 -41 -35 -68 -45 -26 -9 -58 -28
-72 -40 -14 -13 -48 -28 -75 -33 -63 -13 -232 -30 -260 -26 -11 2 -63 6 -115
10 -126 8 -193 22 -224 46 -14 11 -56 29 -93 39 -36 11 -76 28 -87 39 -12 11
-42 29 -67 40 -25 11 -57 34 -72 51 -15 16 -33 30 -40 30 -8 0 -30 17 -50 38
-20 20 -58 55 -83 77 -26 22 -56 51 -68 64 -12 12 -30 30 -40 40 -11 9 -29 27
-40 40 -12 12 -30 30 -40 40 -11 9 -29 27 -40 40 -12 12 -30 30 -40 40 -11 9
-29 27 -40 40 -12 12 -30 30 -40 40 -11 9 -29 27 -40 40 -12 12 -30 30 -40 40
-11 9 -29 27 -40 40 -12 12 -30 30 -40 40 -11 9 -29 27 -40 40 -12 12 -30 30
-40 40 -11 9 -29 27 -40 40 -12 12 -30 30 -40 40 -11 9 -29 27 -40 40 -12 12
-30 30 -40 40 -11 9 -29 27 -40 40 -12 12 -30 30 -40 40 -23 20 -40 37 -91 95
-22 25 -57 63 -77 85 -21 22 -38 45 -38 52 0 6 -15 29 -34 50 -19 21 -40 57
-47 81 -7 24 -20 50 -30 58 -24 22 -38 52 -49 109 -5 28 -21 67 -34 88 -16 24
-29 64 -35 108 -36 249 -38 295 -16 441 8 54 15 104 15 111 0 7 13 27 29 45
15 18 37 54 49 80 15 34 67 94 190 217 94 94 182 175 197 181 37 14 90 13 128
-4 47 -19 449 -421 477 -476 12 -25 31 -57 41 -72 29 -40 26 -128 -5 -165 -14
-16 -28 -42 -32 -57 -3 -15 -24 -48 -45 -72 -21 -25 -44 -62 -50 -83 -6 -21
-22 -51 -35 -66 -31 -36 -36 -80 -32 -265 l3 -156 33 -50 c17 -28 32 -58 32
-68 0 -24 27 -74 57 -105 14 -14 31 -40 39 -58 7 -17 22 -34 33 -38 10 -3 30
-23 44 -45 15 -21 35 -41 45 -44 10 -4 25 -18 33 -32 7 -14 30 -34 51 -45 20
-10 42 -27 47 -38 6 -10 34 -28 63 -41 29 -12 64 -32 78 -45 33 -31 130 -45
307 -45 187 0 258 12 293 50 16 17 36 30 45 30 9 0 29 12 44 27 47 47 54 51
134 72 l77 21 75 -20 c41 -11 77 -20 80 -20 13 0 382 -381 404 -416 35 -58 39
-109 11 -139 -32 -34 -46 -122 -23 -147 33 -37 105 -16 123 36 6 19 18 40 27
47 25 21 35 60 34 128 -1 46 -7 74 -21 95 -11 17 -28 47 -37 66 -16 32 -78
100 -226 247 -13 14 -31 32 -40 40 -8 9 -26 27 -40 40 -27 27 -40 40 -92 91
-21 19 -56 39 -87 48 -29 9 -69 25 -88 36 -48 28 -151 29 -200 0 -19 -11 -60
-28 -90 -37 -33 -11 -66 -31 -86 -51 -17 -19 -37 -34 -45 -34 -7 0 -27 -13
-44 -30 -38 -37 -100 -50 -241 -50 -124 0 -195 14 -232 45 -15 12 -43 29 -62
37 -19 9 -50 28 -69 44 -97 83 -186 174 -209 214 -15 25 -36 53 -47 62 -12 9
-27 36 -34 60 -7 24 -24 62 -37 84 -45 77 -45 271 1 337 12 19 28 50 34 69 6
19 23 45 36 58 14 13 38 52 54 87 17 34 34 63 40 63 16 0 31 70 31 150 0 88
-10 130 -40 162 -11 12 -28 44 -38 70 -10 29 -25 51 -40 57 -12 6 -31 24 -40
40 -9 17 -27 35 -40 40 -13 6 -31 24 -40 40 -9 17 -27 35 -40 40 -13 6 -31 24
-40 40 -9 17 -27 35 -40 40 -13 6 -31 24 -40 40 -9 17 -27 35 -40 40 -13 6
-31 25 -40 41 -9 17 -26 33 -37 36 -11 3 -33 19 -50 34 -43 41 -79 52 -175 52
-99 -1 -147 -13 -168 -43 -8 -11 -30 -27 -48 -35 -18 -8 -40 -27 -48 -42 -8
-15 -26 -33 -39 -39 -14 -7 -31 -24 -39 -40 -7 -15 -26 -34 -41 -41 -16 -8
-32 -25 -37 -38 -6 -14 -23 -33 -40 -42 -16 -9 -34 -29 -39 -44 -5 -14 -21
-34 -34 -43 -14 -9 -35 -41 -48 -72 -12 -30 -32 -65 -45 -77 -18 -17 -28 -52
-53 -181 -37 -193 -39 -239 -17 -329 9 -39 23 -114 30 -169 11 -74 21 -107 40
-135 14 -21 32 -69 41 -111 11 -52 24 -83 43 -106 16 -17 34 -53 42 -79 7 -26
21 -51 31 -57 11 -5 30 -32 44 -59 14 -28 30 -50 35 -50 5 0 24 -21 42 -47 18
-27 48 -64 68 -84 19 -20 40 -42 47 -49 6 -6 25 -25 41 -42 17 -16 35 -34 40
-40 6 -5 24 -23 40 -40 17 -16 35 -34 40 -40 6 -5 25 -24 42 -41 18 -18 36
-36 42 -42 5 -5 23 -23 38 -38 16 -16 33 -33 38 -39 6 -5 24 -23 40 -40 17
-16 35 -34 40 -40 19 -18 71 -70 80 -80 6 -5 24 -23 40 -40 17 -16 35 -34 40
-40 6 -5 24 -23 40 -40 17 -16 35 -34 40 -40 6 -5 24 -23 40 -40 17 -16 35
-34 40 -40 6 -5 24 -23 40 -40 17 -16 36 -35 42 -41 68 -68 184 -167 225 -192
17 -10 42 -31 57 -47 15 -15 36 -28 46 -28 11 0 44 -18 73 -40 30 -22 61 -40
70 -40 28 0 102 -30 124 -50 15 -14 52 -23 140 -35 66 -9 156 -23 199 -31 87
-18 89 -18 291 20 111 21 145 31 165 50 14 14 50 33 81 43 31 11 69 27 84 37
52 34 85 -14 93 -130 7 -105 -12 -200 -49 -241 -16 -19 -29 -43 -29 -53 0 -46
-156 -188 -236 -214 -29 -9 -59 -25 -69 -36 -10 -12 -48 -26 -94 -36 -42 -9
-92 -27 -111 -39 -34 -23 -93 -37 -215 -50 -33 -4 -80 -15 -104 -26 -77 -34
-170 -41 -440 -37 -245 4 -259 5 -331 30 -41 15 -124 34 -184 42 -81 12 -119
22 -145 40 -20 13 -70 31 -112 40 -45 10 -85 25 -99 38 -12 11 -50 29 -84 40
-33 10 -72 29 -86 42 -14 13 -47 31 -73 41 -26 10 -52 26 -58 36 -5 10 -31 28
-57 39 -26 12 -60 34 -77 49 -16 16 -44 36 -61 45 -17 8 -34 22 -37 30 -3 8
-24 26 -46 40 -22 14 -42 34 -45 44 -4 10 -22 26 -40 35 -19 9 -37 25 -41 37
-3 11 -19 27 -34 35 -16 8 -34 28 -41 44 -7 17 -21 33 -31 36 -11 4 -31 24
-45 46 -14 22 -32 43 -40 46 -8 3 -22 20 -30 37 -9 17 -29 45 -45 61 -15 17
-38 52 -49 78 -12 27 -28 51 -36 54 -8 3 -27 33 -43 67 -15 33 -35 67 -44 74
-9 8 -23 39 -32 70 -9 30 -28 70 -41 87 -15 20 -31 62 -40 106 -8 42 -26 90
-40 111 -20 28 -29 61 -41 145 -8 59 -26 142 -41 183 l-27 75 0 300 c0 300 0
300 27 385 15 47 35 134 43 194 12 85 20 116 39 141 16 20 29 58 36 99 8 43
22 79 40 105 16 22 36 64 45 94 8 29 25 64 36 76 11 12 31 46 45 77 13 30 31
57 39 60 8 4 24 27 36 53 11 25 33 60 48 76 16 17 36 44 45 61 8 17 22 34 30
37 8 3 26 24 40 46 14 22 34 42 44 45 10 4 26 22 35 40 9 19 25 37 37 41 11 3
27 19 35 34 8 16 28 34 44 41 17 7 33 21 36 31 4 11 24 31 46 45 22 14 43 32
46 40 3 8 20 22 37 30 17 9 45 29 61 45 17 15 51 37 76 48 26 12 49 28 53 36
3 8 30 26 60 39 31 14 65 34 77 45 12 11 47 28 78 37 31 8 65 24 76 34 30 26
54 36 124 49 37 8 78 23 96 37 24 18 54 27 116 35 46 6 116 19 154 30 163 47
196 50 480 46 261 -3 273 -4 348 -30 43 -15 117 -31 165 -37 116 -15 132 -19
167 -45 17 -12 65 -30 108 -39 47 -11 88 -27 105 -41 15 -13 52 -30 82 -39 30
-9 68 -27 84 -41 15 -13 48 -32 72 -41 24 -9 50 -27 58 -39 9 -13 29 -26 45
-30 16 -3 49 -23 73 -44 24 -21 57 -45 74 -54 17 -9 34 -23 37 -31 3 -8 24
-26 46 -40 22 -14 42 -34 46 -45 3 -10 19 -24 36 -31 16 -7 36 -25 44 -41 8
-15 24 -31 35 -34 12 -4 28 -22 37 -41 9 -18 25 -36 35 -40 10 -3 30 -23 44
-45 14 -22 32 -43 40 -46 8 -3 22 -20 30 -37 9 -17 29 -44 45 -61 15 -16 37
-51 49 -77 11 -26 29 -52 39 -57 10 -6 26 -32 36 -58 10 -26 28 -59 41 -73 13
-15 31 -50 39 -78 9 -29 29 -72 45 -95 17 -26 33 -67 40 -107 6 -37 22 -81 37
-102 20 -29 28 -61 39 -145 8 -59 26 -142 41 -183 26 -72 27 -86 31 -310 4
-262 -7 -399 -37 -457 -12 -25 -24 -79 -31 -144 -11 -97 -23 -138 -65 -209 -8
-14 -15 -36 -15 -50 0 -43 -21 -104 -45 -132 -13 -15 -31 -52 -39 -82 -9 -30
-29 -69 -44 -87 -23 -29 -27 -41 -27 -98 l0 -66 54 0 c54 0 54 0 68 39 7 22
25 54 39 73 14 18 32 55 40 83 8 27 26 62 39 78 17 20 30 55 39 105 9 45 25
92 41 115 21 32 30 66 44 163 10 72 26 141 38 164 30 60 34 107 35 428 0 329
-5 385 -39 476 -13 35 -31 111 -39 169 -12 85 -20 114 -44 150 -17 25 -30 51
-30 58 0 41 -25 119 -46 144 -14 16 -32 53 -40 82 -9 29 -28 69 -43 88 -15 19
-33 50 -39 68 -6 19 -25 49 -41 68 -17 18 -35 52 -42 74 -7 23 -20 42 -31 46
-10 3 -26 20 -34 37 -9 18 -31 48 -48 68 -17 20 -53 62 -81 95 -65 76 -175
186 -250 249 -32 28 -72 63 -88 78 -16 15 -46 37 -67 47 -21 11 -41 28 -44 38
-4 11 -23 24 -46 31 -22 7 -56 25 -74 42 -19 16 -49 35 -68 41 -18 6 -49 24
-68 39 -19 15 -59 34 -88 43 -29 8 -66 26 -82 40 -25 21 -103 46 -144 46 -7 0
-33 13 -58 30 -36 24 -65 32 -150 44 -58 8 -134 26 -170 40 -36 13 -98 27
-139 30 -133 10 -421 13 -574 6z"/>
</g>
</svg>
