<?xml version="1.0" encoding="UTF-8"?>
<!DOCTYPE svg PUBLIC "-//W3C//DTD SVG 1.1//EN" "http://www.w3.org/Graphics/SVG/1.1/DTD/svg11.dtd">
<svg xmlns="http://www.w3.org/2000/svg" version="1.1" width="1662px" height="1662px" style="shape-rendering:geometricPrecision; text-rendering:geometricPrecision; image-rendering:optimizeQuality; fill-rule:evenodd; clip-rule:evenodd" xmlns:xlink="http://www.w3.org/1999/xlink">
<clipPath id="a">
<rect y="687" width="1095" height="1100"/>
</clipPath>
<g><path style="opacity:0.986" fill="#0349b3" d="M 471.5,304.5 C 467.266,303.202 462.599,302.369 457.5,302C 456.62,300.644 456.286,299.144 456.5,297.5C 455.325,297.719 454.325,297.386 453.5,296.5C 452.811,294.556 452.311,292.556 452,290.5C 450.062,289.14 448.396,289.473 447,291.5C 446.505,293.473 446.338,295.473 446.5,297.5C 444.833,297.5 443.167,297.5 441.5,297.5C 441.5,294.167 441.5,290.833 441.5,287.5C 438.996,286.361 436.33,285.694 433.5,285.5C 433.219,279.666 435.886,276.666 441.5,276.5C 441.5,279.5 441.5,282.5 441.5,285.5C 443.167,285.5 444.833,285.5 446.5,285.5C 446.5,282.5 446.5,279.5 446.5,276.5C 445.5,276.5 444.5,276.5 443.5,276.5C 444.017,272.778 444.85,269.112 446,265.5C 446.499,261.514 446.666,257.514 446.5,253.5C 555.745,178.976 676.745,139.643 809.5,135.5C 809.5,154.167 809.5,172.833 809.5,191.5C 685.666,196.889 572.999,234.555 471.5,304.5 Z"/></g>
<g><path style="opacity:0.994" fill="#5bda00" d="M 851.5,135.5 C 1044.75,144.059 1206.58,219.059 1337,360.5C 1463.95,506.347 1520.95,676.347 1508,870.5C 1498.85,979.938 1465.35,1081.1 1407.5,1174C 1385.17,1174.5 1362.84,1174.67 1340.5,1174.5C 1438.45,1029.98 1472.62,871.312 1443,698.5C 1407.03,525.577 1316.19,390.077 1170.5,292C 1073.46,229.712 967.125,196.212 851.5,191.5C 851.5,172.833 851.5,154.167 851.5,135.5 Z"/></g>
<g><path style="opacity:0.991" fill="#034bb7" d="M 446.5,253.5 C 446.666,257.514 446.499,261.514 446,265.5C 444.85,269.112 444.017,272.778 443.5,276.5C 444.5,276.5 445.5,276.5 446.5,276.5C 446.5,279.5 446.5,282.5 446.5,285.5C 444.833,285.5 443.167,285.5 441.5,285.5C 441.5,282.5 441.5,279.5 441.5,276.5C 435.886,276.666 433.219,279.666 433.5,285.5C 436.33,285.694 438.996,286.361 441.5,287.5C 441.5,290.833 441.5,294.167 441.5,297.5C 443.167,297.5 444.833,297.5 446.5,297.5C 446.338,295.473 446.505,293.473 447,291.5C 448.396,289.473 450.062,289.14 452,290.5C 452.311,292.556 452.811,294.556 453.5,296.5C 454.325,297.386 455.325,297.719 456.5,297.5C 456.286,299.144 456.62,300.644 457.5,302C 462.599,302.369 467.266,303.202 471.5,304.5C 319.034,416.06 231.868,566.394 210,755.5C 197.036,907.663 233.703,1046.33 320,1171.5C 320.483,1172.45 320.649,1173.45 320.5,1174.5C 298.164,1174.67 275.831,1174.5 253.5,1174C 177.469,1050.71 143.636,916.544 152,771.5C 169.022,564.574 258.855,397.74 421.5,271C 429.862,265.157 438.196,259.324 446.5,253.5 Z"/></g>
<g><path style="opacity:0.971" fill="#003298" d="M 823.5,323.5 C 844.401,322.027 859.235,330.693 868,349.5C 869.31,353.07 870.143,356.737 870.5,360.5C 844.011,355.178 817.511,355.178 791,360.5C 790.167,360.167 789.333,359.833 788.5,359.5C 792.81,340.192 804.477,328.192 823.5,323.5 Z"/></g>
<g><path style="opacity:0.972" fill="#003298" d="M 814.5,359.5 C 874.825,356.38 926.825,375.38 970.5,416.5C 979.152,410.929 986.985,411.929 994,419.5C 998.312,428.555 996.478,436.055 988.5,442C 983.5,444 978.5,444 973.5,442C 919.633,382.358 853.633,362.692 775.5,383C 740.182,394.008 711.182,414.008 688.5,443C 686.35,444.411 684.016,445.245 681.5,445.5C 691.696,472.915 702.196,500.249 713,527.5C 721.415,528.483 729.915,528.817 738.5,528.5C 735.471,564.195 716.138,583.529 680.5,586.5C 649.819,584.991 630.653,569.324 623,539.5C 622.501,535.848 622.335,532.182 622.5,528.5C 630.528,528.831 638.528,528.498 646.5,527.5C 657.444,500.612 668.11,473.612 678.5,446.5C 664.686,441.918 660.853,432.918 667,419.5C 674.015,411.929 681.848,410.929 690.5,416.5C 725.317,383.426 766.651,364.426 814.5,359.5 Z M 679.5,470.5 C 687.046,489.624 694.713,508.79 702.5,528C 687.489,528.833 672.489,528.666 657.5,527.5C 665.124,508.59 672.457,489.59 679.5,470.5 Z"/></g>
<g><path style="opacity:0.99" fill="#003298" d="M 814.5,379.5 C 833.345,378.671 852.012,380.005 870.5,383.5C 870.667,488.834 870.5,594.167 870,699.5C 843.304,725.864 816.304,751.864 789,777.5C 788.5,646.167 788.333,514.834 788.5,383.5C 797.312,382.243 805.978,380.909 814.5,379.5 Z"/></g>
<g><path style="opacity:0.977" fill="#003298" d="M 980.5,444.5 C 981.79,445.058 982.623,446.058 983,447.5C 993.223,474.279 1003.72,500.945 1014.5,527.5C 1022.47,528.498 1030.47,528.831 1038.5,528.5C 1037.92,553.166 1026.58,570.999 1004.5,582C 975.954,592.369 952.121,585.869 933,562.5C 926.182,552.211 922.682,540.877 922.5,528.5C 931.085,528.817 939.585,528.483 948,527.5C 958.849,499.808 969.682,472.141 980.5,444.5 Z M 980.5,470.5 C 988.39,489.298 996.056,508.298 1003.5,527.5C 988.511,528.666 973.511,528.833 958.5,528C 966.526,509.088 973.859,489.922 980.5,470.5 Z"/></g>
<g><path style="opacity:0.999" fill="#60b919" d="M 433.5,570.5 C 458.5,570.5 483.5,570.5 508.5,570.5C 508.5,669.167 508.5,767.833 508.5,866.5C 593.167,866.5 677.833,866.5 762.5,866.5C 762.5,889.167 762.5,911.833 762.5,934.5C 677.833,934.5 593.167,934.5 508.5,934.5C 508.5,1007.17 508.5,1079.83 508.5,1152.5C 483.5,1152.5 458.5,1152.5 433.5,1152.5C 433.5,958.5 433.5,764.5 433.5,570.5 Z"/></g>
<g><path style="opacity:0.999" fill="#61b919" d="M 899.5,934.5 C 899.5,912.167 899.5,889.833 899.5,867.5C 984.002,867.833 1068.33,867.499 1152.5,866.5C 1152.5,767.833 1152.5,669.167 1152.5,570.5C 1177.5,570.5 1202.5,570.5 1227.5,570.5C 1227.5,764.5 1227.5,958.5 1227.5,1152.5C 1202.5,1152.5 1177.5,1152.5 1152.5,1152.5C 1152.5,1079.83 1152.5,1007.17 1152.5,934.5C 1068.17,934.5 983.833,934.5 899.5,934.5 Z"/></g>
<g><path style="opacity:0.99" fill="#003298" d="M 869.5,720.5 C 870.333,834.666 870.833,948.999 871,1063.5C 874.723,1065.56 877.39,1068.56 879,1072.5C 880.37,1080.76 880.87,1089.1 880.5,1097.5C 846.833,1097.5 813.167,1097.5 779.5,1097.5C 779.334,1089.49 779.5,1081.49 780,1073.5C 781.779,1068.59 784.946,1064.92 789.5,1062.5C 788.336,974.874 788.169,887.207 789,799.5C 816.033,773.299 842.867,746.966 869.5,720.5 Z"/></g>
<g><path style="opacity:0.043" fill="#5fa51a" d="M 1152.5,866.5 C 1068.33,867.499 984.002,867.833 899.5,867.5C 899.5,889.833 899.5,912.167 899.5,934.5C 898.503,912.006 898.169,889.339 898.5,866.5C 983.167,866.5 1067.83,866.5 1152.5,866.5 Z"/></g>
<g><path style="opacity:0.982" fill="#003298" d="M 748.5,1100.5 C 802.168,1100.33 855.834,1100.5 909.5,1101C 911.795,1104.3 914.462,1107.3 917.5,1110C 858.5,1110.67 799.5,1110.67 740.5,1110C 743.002,1106.67 745.668,1103.5 748.5,1100.5 Z"/></g>
<g><path style="opacity:0.973" fill="#003298" d="M 737.5,1121.5 C 798.833,1121.5 860.167,1121.5 921.5,1121.5C 921.5,1130.17 921.5,1138.83 921.5,1147.5C 860.167,1147.5 798.833,1147.5 737.5,1147.5C 737.5,1138.83 737.5,1130.17 737.5,1121.5 Z"/></g>
<g><path style="opacity:0.927" fill="#000000" d="M 761.5,1199.5 C 771.632,1199.66 780.799,1202.66 789,1208.5C 791.153,1203.49 794.986,1201.49 800.5,1202.5C 801.089,1216.49 801.423,1230.49 801.5,1244.5C 798.5,1244.5 795.5,1244.5 792.5,1244.5C 790.562,1232.79 785.562,1222.62 777.5,1214C 766.888,1207.57 756.721,1208.07 747,1215.5C 740.289,1228.36 743.122,1238.53 755.5,1246C 769.16,1250.66 782.16,1256.66 794.5,1264C 806.901,1275.78 809.735,1289.62 803,1305.5C 791.444,1322.85 775.278,1329.69 754.5,1326C 747.607,1324.47 741.107,1321.97 735,1318.5C 733.082,1323.74 729.249,1325.74 723.5,1324.5C 722.822,1310.18 722.489,1295.84 722.5,1281.5C 725.5,1281.5 728.5,1281.5 731.5,1281.5C 733.725,1297.15 741.725,1308.65 755.5,1316C 764.588,1318.61 773.255,1317.78 781.5,1313.5C 783.577,1311.92 785.077,1309.92 786,1307.5C 790.524,1293.4 786.357,1282.9 773.5,1276C 760.764,1272.2 748.764,1266.87 737.5,1260C 723.443,1245.71 721.943,1230.21 733,1213.5C 740.813,1205.18 750.313,1200.51 761.5,1199.5 Z"/></g>
<g><path style="opacity:0.917" fill="#000000" d="M 333.5,1201.5 C 336.572,1201.18 339.572,1201.52 342.5,1202.5C 356.223,1238.28 370.223,1273.95 384.5,1309.5C 388.583,1314.53 393.916,1316.86 400.5,1316.5C 400.5,1319.17 400.5,1321.83 400.5,1324.5C 383.167,1324.5 365.833,1324.5 348.5,1324.5C 348.5,1321.83 348.5,1319.17 348.5,1316.5C 353.289,1316.38 357.955,1315.54 362.5,1314C 363.059,1313.28 363.392,1312.44 363.5,1311.5C 360.434,1302.47 357.267,1293.47 354,1284.5C 340.242,1283.34 326.408,1283.18 312.5,1284C 307.939,1293.01 305.439,1302.51 305,1312.5C 310.192,1315.01 315.692,1316.34 321.5,1316.5C 321.5,1319.17 321.5,1321.83 321.5,1324.5C 305.833,1324.5 290.167,1324.5 274.5,1324.5C 274.5,1321.83 274.5,1319.17 274.5,1316.5C 283.672,1316.67 290.172,1312.67 294,1304.5C 307.272,1270.18 320.438,1235.85 333.5,1201.5 Z M 332.5,1231.5 C 338.438,1245.13 344.105,1258.96 349.5,1273C 338.485,1273.83 327.485,1273.67 316.5,1272.5C 321.841,1258.8 327.175,1245.14 332.5,1231.5 Z"/></g>
<g><path style="opacity:0.922" fill="#000000" d="M 145.5,1202.5 C 162.833,1202.5 180.167,1202.5 197.5,1202.5C 197.5,1205.17 197.5,1207.83 197.5,1210.5C 193.116,1211.01 188.782,1211.84 184.5,1213C 183.299,1213.9 182.465,1215.07 182,1216.5C 181.5,1229.83 181.333,1243.16 181.5,1256.5C 199.5,1256.5 217.5,1256.5 235.5,1256.5C 235.667,1243.5 235.5,1230.5 235,1217.5C 231.015,1212.77 225.848,1210.44 219.5,1210.5C 219.5,1207.83 219.5,1205.17 219.5,1202.5C 236.833,1202.5 254.167,1202.5 271.5,1202.5C 271.5,1205.17 271.5,1207.83 271.5,1210.5C 267.825,1211.06 264.159,1211.72 260.5,1212.5C 258.124,1213.38 256.624,1215.04 256,1217.5C 255.333,1248.17 255.333,1278.83 256,1309.5C 256.11,1311.85 257.277,1313.35 259.5,1314C 263.378,1315.47 267.378,1316.3 271.5,1316.5C 271.5,1319.17 271.5,1321.83 271.5,1324.5C 254.167,1324.5 236.833,1324.5 219.5,1324.5C 219.5,1321.83 219.5,1319.17 219.5,1316.5C 223.582,1316.66 227.582,1316.16 231.5,1315C 233.333,1314.5 234.5,1313.33 235,1311.5C 235.5,1296.17 235.667,1280.84 235.5,1265.5C 217.5,1265.5 199.5,1265.5 181.5,1265.5C 181.333,1280.5 181.5,1295.5 182,1310.5C 182.465,1311.93 183.299,1313.1 184.5,1314C 188.728,1315.41 193.061,1316.25 197.5,1316.5C 197.5,1319.17 197.5,1321.83 197.5,1324.5C 180.167,1324.5 162.833,1324.5 145.5,1324.5C 145.5,1321.83 145.5,1319.17 145.5,1316.5C 149.56,1316.52 153.56,1316.02 157.5,1315C 159.333,1314.5 160.5,1313.33 161,1311.5C 161.667,1280.17 161.667,1248.83 161,1217.5C 157.015,1212.77 151.848,1210.44 145.5,1210.5C 145.5,1207.83 145.5,1205.17 145.5,1202.5 Z"/></g>
<g><path style="opacity:0.922" fill="#000000" d="M 402.5,1202.5 C 419.833,1202.5 437.167,1202.5 454.5,1202.5C 454.5,1205.17 454.5,1207.83 454.5,1210.5C 450.088,1210.9 445.754,1211.74 441.5,1213C 440.299,1213.9 439.465,1215.07 439,1216.5C 438.167,1231.18 438.334,1245.84 439.5,1260.5C 454.265,1248.57 467.098,1234.9 478,1219.5C 479.309,1217.31 479.476,1215.15 478.5,1213C 474.654,1211.46 470.654,1210.63 466.5,1210.5C 466.5,1207.83 466.5,1205.17 466.5,1202.5C 482.167,1202.5 497.833,1202.5 513.5,1202.5C 513.5,1205.17 513.5,1207.83 513.5,1210.5C 506.682,1210.64 500.348,1212.47 494.5,1216C 482.351,1229.65 470.018,1243.15 457.5,1256.5C 471.833,1273.83 486.167,1291.17 500.5,1308.5C 506.431,1314.38 513.597,1317.04 522,1316.5C 526.21,1316.36 530.376,1315.86 534.5,1315C 535.931,1314.53 537.097,1313.7 538,1312.5C 538.667,1280.5 538.667,1248.5 538,1216.5C 532.881,1212.63 527.048,1210.63 520.5,1210.5C 520.5,1207.83 520.5,1205.17 520.5,1202.5C 539.167,1202.5 557.833,1202.5 576.5,1202.5C 576.5,1205.17 576.5,1207.83 576.5,1210.5C 570.722,1210.82 565.222,1212.16 560,1214.5C 558.863,1230.78 558.363,1247.12 558.5,1263.5C 558.355,1279.56 558.855,1295.56 560,1311.5C 560.833,1312.33 561.667,1313.17 562.5,1314C 567.096,1315.29 571.763,1316.12 576.5,1316.5C 576.5,1319.17 576.5,1321.83 576.5,1324.5C 546.165,1324.67 515.832,1324.5 485.5,1324C 471.522,1303.35 456.022,1283.85 439,1265.5C 438.333,1280.5 438.333,1295.5 439,1310.5C 439.995,1312.16 441.328,1313.49 443,1314.5C 446.761,1315.62 450.594,1316.29 454.5,1316.5C 454.5,1319.17 454.5,1321.83 454.5,1324.5C 437.167,1324.5 419.833,1324.5 402.5,1324.5C 402.5,1321.83 402.5,1319.17 402.5,1316.5C 406.56,1316.52 410.56,1316.02 414.5,1315C 416.333,1314.5 417.5,1313.33 418,1311.5C 418.667,1280.17 418.667,1248.83 418,1217.5C 417.052,1215.43 415.552,1213.93 413.5,1213C 409.896,1211.85 406.229,1211.01 402.5,1210.5C 402.5,1207.83 402.5,1205.17 402.5,1202.5 Z"/></g>
<g><path style="opacity:0.918" fill="#000000" d="M 583.5,1202.5 C 595.518,1202.17 607.518,1202.5 619.5,1203.5C 641.526,1233.03 663.36,1262.69 685,1292.5C 685.901,1269.14 685.568,1245.81 684,1222.5C 683.361,1219.89 682.194,1217.55 680.5,1215.5C 675.408,1213.02 670.075,1211.36 664.5,1210.5C 664.5,1207.83 664.5,1205.17 664.5,1202.5C 681.167,1202.5 697.833,1202.5 714.5,1202.5C 714.5,1205.17 714.5,1207.83 714.5,1210.5C 709.307,1211.07 704.307,1212.41 699.5,1214.5C 697.283,1217.07 696.116,1220.07 696,1223.5C 695.5,1257.5 695.333,1291.5 695.5,1325.5C 692.102,1325.82 688.768,1325.49 685.5,1324.5C 662.526,1293.03 639.36,1261.69 616,1230.5C 615.333,1254.17 615.333,1277.83 616,1301.5C 616.536,1305.45 618.036,1308.95 620.5,1312C 625.586,1314.42 630.919,1315.92 636.5,1316.5C 636.5,1319.17 636.5,1321.83 636.5,1324.5C 619.5,1324.5 602.5,1324.5 585.5,1324.5C 585.5,1321.83 585.5,1319.17 585.5,1316.5C 590.075,1315.9 594.575,1314.9 599,1313.5C 601.446,1311.72 603.113,1309.39 604,1306.5C 605.601,1280.2 605.935,1253.86 605,1227.5C 604.501,1222.99 602.667,1219.15 599.5,1216C 594.531,1213.07 589.198,1211.23 583.5,1210.5C 583.5,1207.83 583.5,1205.17 583.5,1202.5 Z"/></g>
<g><path style="opacity:0.94" fill="#000000" d="M 903.5,1202.5 C 920.5,1202.5 937.5,1202.5 954.5,1202.5C 954.5,1205.17 954.5,1207.83 954.5,1210.5C 950.44,1211.01 946.44,1211.84 942.5,1213C 940.785,1213.78 939.785,1215.11 939.5,1217C 938.546,1230.14 938.212,1243.31 938.5,1256.5C 956.833,1256.5 975.167,1256.5 993.5,1256.5C 993.806,1243.3 993.473,1230.13 992.5,1217C 988.371,1213.01 983.371,1210.84 977.5,1210.5C 977.5,1207.83 977.5,1205.17 977.5,1202.5C 994.833,1202.5 1012.17,1202.5 1029.5,1202.5C 1029.5,1205.17 1029.5,1207.83 1029.5,1210.5C 1026.16,1210.89 1022.83,1211.39 1019.5,1212C 1017.07,1212.29 1015.24,1213.46 1014,1215.5C 1013.33,1247.5 1013.33,1279.5 1014,1311.5C 1018.47,1315.08 1023.64,1316.75 1029.5,1316.5C 1029.5,1319.17 1029.5,1321.83 1029.5,1324.5C 1012.17,1324.5 994.833,1324.5 977.5,1324.5C 977.5,1321.83 977.5,1319.17 977.5,1316.5C 982.333,1316.63 987,1315.79 991.5,1314C 992.191,1312.93 992.691,1311.77 993,1310.5C 993.5,1295.5 993.667,1280.5 993.5,1265.5C 975.167,1265.5 956.833,1265.5 938.5,1265.5C 938.207,1280.36 938.54,1295.19 939.5,1310C 940.439,1312.32 942.105,1313.99 944.5,1315C 947.793,1315.83 951.126,1316.33 954.5,1316.5C 954.5,1319.17 954.5,1321.83 954.5,1324.5C 937.5,1324.5 920.5,1324.5 903.5,1324.5C 903.5,1321.83 903.5,1319.17 903.5,1316.5C 908.932,1316.94 913.765,1315.6 918,1312.5C 919.136,1296.55 919.636,1280.55 919.5,1264.5C 919.636,1248.45 919.136,1232.45 918,1216.5C 913.892,1212.85 909.059,1210.85 903.5,1210.5C 903.5,1207.83 903.5,1205.17 903.5,1202.5 Z"/></g>
<g><path style="opacity:0.91" fill="#000000" d="M 1042.5,1202.5 C 1074.17,1202.5 1105.83,1202.5 1137.5,1202.5C 1137.5,1212.83 1137.5,1223.17 1137.5,1233.5C 1134.75,1233.81 1132.09,1233.48 1129.5,1232.5C 1126.43,1224.85 1121.76,1218.35 1115.5,1213C 1103.56,1211.59 1091.56,1211.09 1079.5,1211.5C 1079.5,1226.83 1079.5,1242.17 1079.5,1257.5C 1087.67,1257.92 1095.67,1257.09 1103.5,1255C 1108.27,1250.19 1110.61,1244.35 1110.5,1237.5C 1113.5,1237.5 1116.5,1237.5 1119.5,1237.5C 1119.5,1253.83 1119.5,1270.17 1119.5,1286.5C 1116.5,1286.5 1113.5,1286.5 1110.5,1286.5C 1110.81,1279.24 1108.47,1273.07 1103.5,1268C 1095.68,1265.84 1087.68,1265.01 1079.5,1265.5C 1079.33,1278.5 1079.5,1291.5 1080,1304.5C 1079.47,1310.29 1081.97,1313.79 1087.5,1315C 1099.42,1316.01 1111.26,1315.51 1123,1313.5C 1130.16,1306.54 1135.32,1298.21 1138.5,1288.5C 1141.09,1287.52 1143.75,1287.19 1146.5,1287.5C 1145.63,1299.82 1144.96,1312.15 1144.5,1324.5C 1110.5,1324.5 1076.5,1324.5 1042.5,1324.5C 1042.5,1321.83 1042.5,1319.17 1042.5,1316.5C 1046.88,1316.42 1051.21,1315.92 1055.5,1315C 1057,1314.17 1058.17,1313 1059,1311.5C 1059.83,1279.49 1059.67,1247.49 1058.5,1215.5C 1053.59,1212.6 1048.26,1210.94 1042.5,1210.5C 1042.5,1207.83 1042.5,1205.17 1042.5,1202.5 Z"/></g>
<g><path style="opacity:0.918" fill="#000000" d="M 1150.5,1202.5 C 1162.52,1202.17 1174.52,1202.5 1186.5,1203.5C 1208.53,1233.03 1230.36,1262.69 1252,1292.5C 1252.9,1269.14 1252.57,1245.81 1251,1222.5C 1250.36,1219.89 1249.19,1217.55 1247.5,1215.5C 1242.41,1213.02 1237.07,1211.36 1231.5,1210.5C 1231.5,1207.83 1231.5,1205.17 1231.5,1202.5C 1248.17,1202.5 1264.83,1202.5 1281.5,1202.5C 1281.5,1205.17 1281.5,1207.83 1281.5,1210.5C 1276.31,1211.07 1271.31,1212.41 1266.5,1214.5C 1264.28,1217.07 1263.12,1220.07 1263,1223.5C 1262.5,1257.5 1262.33,1291.5 1262.5,1325.5C 1259.1,1325.82 1255.77,1325.49 1252.5,1324.5C 1229.53,1293.03 1206.36,1261.69 1183,1230.5C 1182.33,1254.17 1182.33,1277.83 1183,1301.5C 1183.54,1305.45 1185.04,1308.95 1187.5,1312C 1192.59,1314.42 1197.92,1315.92 1203.5,1316.5C 1203.5,1319.17 1203.5,1321.83 1203.5,1324.5C 1186.5,1324.5 1169.5,1324.5 1152.5,1324.5C 1152.5,1321.83 1152.5,1319.17 1152.5,1316.5C 1157.08,1315.9 1161.58,1314.9 1166,1313.5C 1168.45,1311.72 1170.11,1309.39 1171,1306.5C 1172.6,1280.2 1172.93,1253.86 1172,1227.5C 1171.5,1222.99 1169.67,1219.15 1166.5,1216C 1161.53,1213.07 1156.2,1211.23 1150.5,1210.5C 1150.5,1207.83 1150.5,1205.17 1150.5,1202.5 Z"/></g>
<g><path style="opacity:0.928" fill="#000000" d="M 1289.5,1202.5 C 1310.17,1202.33 1330.84,1202.5 1351.5,1203C 1377.07,1205.03 1387.57,1218.53 1383,1243.5C 1377.42,1255.06 1368.25,1262.23 1355.5,1265C 1366.8,1280.44 1378.47,1295.6 1390.5,1310.5C 1395.74,1314.65 1401.74,1316.65 1408.5,1316.5C 1408.5,1319.17 1408.5,1321.83 1408.5,1324.5C 1396.83,1324.5 1385.17,1324.5 1373.5,1324.5C 1373.65,1323.45 1373.48,1322.45 1373,1321.5C 1361.72,1304.56 1350.06,1287.89 1338,1271.5C 1333.93,1270.54 1329.77,1270.2 1325.5,1270.5C 1325.33,1283.84 1325.5,1297.17 1326,1310.5C 1326.52,1312.22 1327.52,1313.56 1329,1314.5C 1333.4,1315.87 1337.9,1316.53 1342.5,1316.5C 1342.5,1319.17 1342.5,1321.83 1342.5,1324.5C 1324.83,1324.5 1307.17,1324.5 1289.5,1324.5C 1289.5,1321.83 1289.5,1319.17 1289.5,1316.5C 1293.53,1316.33 1297.53,1315.83 1301.5,1315C 1303.33,1314.5 1304.5,1313.33 1305,1311.5C 1305.67,1279.83 1305.67,1248.17 1305,1216.5C 1304.53,1215.07 1303.7,1213.9 1302.5,1213C 1298.2,1211.95 1293.86,1211.12 1289.5,1210.5C 1289.5,1207.83 1289.5,1205.17 1289.5,1202.5 Z M 1325.5,1211.5 C 1334.32,1210.97 1342.99,1211.8 1351.5,1214C 1358.62,1218.66 1361.95,1225.32 1361.5,1234C 1362.16,1247.36 1356.16,1256.03 1343.5,1260C 1337.55,1261.07 1331.55,1261.57 1325.5,1261.5C 1325.5,1244.83 1325.5,1228.17 1325.5,1211.5 Z"/></g>
<g><path style="opacity:0.915" fill="#000000" d="M 1398.5,1202.5 C 1416.17,1202.5 1433.83,1202.5 1451.5,1202.5C 1451.5,1205.17 1451.5,1207.83 1451.5,1210.5C 1447.15,1210.76 1442.81,1211.26 1438.5,1212C 1437.43,1212.74 1436.76,1213.74 1436.5,1215C 1443.97,1230.78 1452.3,1245.95 1461.5,1260.5C 1469.23,1249.59 1476.39,1238.26 1483,1226.5C 1484.92,1223.16 1486.42,1219.66 1487.5,1216C 1487.25,1214.67 1486.58,1213.67 1485.5,1213C 1480.91,1211.75 1476.24,1210.92 1471.5,1210.5C 1471.5,1207.83 1471.5,1205.17 1471.5,1202.5C 1486.17,1202.5 1500.83,1202.5 1515.5,1202.5C 1515.81,1205.25 1515.48,1207.91 1514.5,1210.5C 1506.28,1211.88 1500.11,1216.21 1496,1223.5C 1489.75,1233 1483.75,1242.67 1478,1252.5C 1473.79,1259.59 1470.12,1266.92 1467,1274.5C 1466.33,1286.5 1466.33,1298.5 1467,1310.5C 1468.72,1313.1 1471.22,1314.6 1474.5,1315C 1478.11,1315.94 1481.78,1316.44 1485.5,1316.5C 1485.5,1319.17 1485.5,1321.83 1485.5,1324.5C 1466.17,1324.5 1446.83,1324.5 1427.5,1324.5C 1427.5,1321.83 1427.5,1319.17 1427.5,1316.5C 1431.88,1316.42 1436.21,1315.92 1440.5,1315C 1442.52,1314.49 1444.02,1313.32 1445,1311.5C 1446.6,1300.24 1446.93,1288.91 1446,1277.5C 1437.46,1258.76 1428.13,1240.43 1418,1222.5C 1413.77,1214.8 1407.27,1210.8 1398.5,1210.5C 1398.5,1207.83 1398.5,1205.17 1398.5,1202.5 Z"/></g>
<g><path style="opacity:0.993" fill="#5bda00" d="M 413.5,1350.5 C 446.835,1350.33 480.168,1350.5 513.5,1351C 604.766,1404.66 703.433,1433.49 809.5,1437.5C 809.667,1456.5 809.5,1475.5 809,1494.5C 669.145,1488.77 542.645,1445.27 429.5,1364C 423.638,1359.96 418.305,1355.46 413.5,1350.5 Z"/></g>
<g><path style="opacity:0.991" fill="#0547af" d="M 1147.5,1350.5 C 1180.84,1350.17 1214.17,1350.5 1247.5,1351.5C 1131.09,1440.98 999.092,1488.31 851.5,1493.5C 851.5,1474.83 851.5,1456.17 851.5,1437.5C 957.797,1433.6 1056.46,1404.6 1147.5,1350.5 Z"/></g>
</svg>
